<?xml version="1.0" standalone="no"?><svg xmlns="http://www.w3.org/2000/svg" viewBox="0 0 1440 320"><path fill="#8c124b" fill-opacity="1" d="M0,256L30,224C60,192,120,128,180,112C240,96,300,128,360,154.7C420,181,480,203,540,192C600,181,660,139,720,128C780,117,840,139,900,133.3C960,128,1020,96,1080,85.3C1140,75,1200,85,1260,80C1320,75,1380,53,1410,42.7L1440,32L1440,0L1410,0C1380,0,1320,0,1260,0C1200,0,1140,0,1080,0C1020,0,960,0,900,0C840,0,780,0,720,0C660,0,600,0,540,0C480,0,420,0,360,0C300,0,240,0,180,0C120,0,60,0,30,0L0,0Z"></path></svg>