<?xml version="1.0" standalone="no"?>
<svg xmlns:xlink="http://www.w3.org/1999/xlink" id="wave" style="transform:rotate(0deg); transition: 0.3s" viewBox="0 0 1440 490" version="1.1" xmlns="http://www.w3.org/2000/svg" preserveAspectRatio="none"><defs><linearGradient id="sw-gradient-0" x1="0" x2="0" y1="1" y2="0"><stop stop-color="rgba(107.436, 0, 49.358, 1)" offset="0%"/><stop stop-color="rgba(142.392, 0, 152.972, 1)" offset="100%"/></linearGradient></defs><path style="transform:translate(0, 0px); opacity:1" fill="url(#sw-gradient-0)" d="M0,294L40,310.3C80,327,160,359,240,343C320,327,400,261,480,220.5C560,180,640,163,720,155.2C800,147,880,147,960,155.2C1040,163,1120,180,1200,163.3C1280,147,1360,98,1440,98C1520,98,1600,147,1680,171.5C1760,196,1840,196,1920,204.2C2000,212,2080,229,2160,196C2240,163,2320,82,2400,81.7C2480,82,2560,163,2640,236.8C2720,310,2800,376,2880,400.2C2960,425,3040,408,3120,367.5C3200,327,3280,261,3360,212.3C3440,163,3520,131,3600,138.8C3680,147,3760,196,3840,245C3920,294,4000,343,4080,310.3C4160,278,4240,163,4320,163.3C4400,163,4480,278,4560,318.5C4640,359,4720,327,4800,310.3C4880,294,4960,294,5040,294C5120,294,5200,294,5280,261.3C5360,229,5440,163,5520,138.8C5600,114,5680,131,5720,138.8L5760,147L5760,490L5720,490C5680,490,5600,490,5520,490C5440,490,5360,490,5280,490C5200,490,5120,490,5040,490C4960,490,4880,490,4800,490C4720,490,4640,490,4560,490C4480,490,4400,490,4320,490C4240,490,4160,490,4080,490C4000,490,3920,490,3840,490C3760,490,3680,490,3600,490C3520,490,3440,490,3360,490C3280,490,3200,490,3120,490C3040,490,2960,490,2880,490C2800,490,2720,490,2640,490C2560,490,2480,490,2400,490C2320,490,2240,490,2160,490C2080,490,2000,490,1920,490C1840,490,1760,490,1680,490C1600,490,1520,490,1440,490C1360,490,1280,490,1200,490C1120,490,1040,490,960,490C880,490,800,490,720,490C640,490,560,490,480,490C400,490,320,490,240,490C160,490,80,490,40,490L0,490Z"/></svg>